<svg xmlns="http://www.w3.org/2000/svg" xml:space="preserve" viewBox="0 0 261 261" fill-rule="evenodd" clip-rule="evenodd"><path d="M39.581 41.421h-8.954v-1.215q0-2.034.818-3.597.819-1.587 3.448-4.018l1.588-1.439q1.413-1.29 2.059-2.431.669-1.14.669-2.282 0-1.736-1.19-2.703-1.191-.993-3.324-.993-2.01 0-4.341.844-2.331.818-4.862 2.455v-7.788q3.002-1.042 5.482-1.538a24.4 24.4 0 0 1 4.787-.496q6.052 0 9.228 2.48 3.175 2.455 3.175 7.194 0 2.43-.968 4.365-.966 1.91-3.299 4.118l-1.587 1.414q-1.687 1.538-2.208 2.48a4.05 4.05 0 0 0-.521 2.034zm-8.954 3.671h8.954v8.831h-8.954z" transform="scale(2.83465)" fill="#d8dee9" fill-rule="nonzero"/><circle cx="35" cy="36.486" r="30" transform="scale(2.83465)" fill="none" stroke="#d8dee9" stroke-width="10px"/><path d="M-12.021 80.49H6.825v39.963h-18.846z" transform="rotate(-46.235)scale(2.83465)" fill="#d8dee9"/></svg>