<svg xmlns="http://www.w3.org/2000/svg" xml:space="preserve" viewBox="0 0 766 110" fill-rule="evenodd" clip-rule="evenodd" stroke-linecap="round" stroke-linejoin="round"><path d="M56.494 102.704q-1.169-1.22-3.048-2.032t-4.42-.813q-3.149 0-5.08 1.321-1.93 1.27-1.93 3.454 0 2.337 3.708 3.607l7.671 2.641q3.963 1.321 5.842 3.404 1.88 2.083 1.88 5.131 0 4.064-2.185 7.01-2.184 2.896-5.943 4.42t-8.484 1.524q-5.334 0-9.042-1.778-3.708-1.829-5.537-5.131a1.4 1.4 0 0 1-.204-.711q0-.355.407-.61l4.013-2.438q.355-.255.762-.254.61 0 1.118.66 1.32 1.626 2.387 2.54 1.118.864 2.693 1.321 1.625.457 4.165.457 3.2 0 5.182-1.168 1.981-1.22 1.981-3.759 0-1.27-.914-2.083-.915-.864-2.947-1.575l-7.417-2.489q-3.657-1.22-5.588-3.556-1.88-2.388-1.879-5.436 0-3.759 2.133-6.655 2.134-2.895 5.69-4.47 3.607-1.575 7.874-1.575 4.37 0 7.671 1.575 3.353 1.524 5.181 3.962.407.509.407.762 0 .255-.356.458l-4.521 2.997q-.051.051-.203.051-.305 0-1.067-.762M77.004 132.371q-3.607 0-6.401-1.473t-4.318-4.115q-1.524-2.693-1.524-6.198 0-4.166 1.981-7.874 2.033-3.759 5.537-5.994 3.557-2.286 7.925-2.286 5.334 0 8.484 3.149t3.149 8.687q0 1.474-.203 2.845-.102.406-.355.61-.204.152-.813.152h-17.12q-.813 0-.813 2.184 0 2.388 1.524 3.709 1.575 1.27 4.064 1.27 1.931 0 3.607-.813t3.302-2.54q.255-.254.508-.254.153 0 .661.203l3.352 1.575q.61.203.61.66 0 .255-.254.661-2.947 3.301-5.893 4.572-2.895 1.27-7.01 1.27m6.451-16.561q1.22 0 1.22-1.981 0-1.93-1.169-3.251-1.168-1.372-3.251-1.372-2.54 0-4.521 1.93-1.93 1.88-2.235 4.674zM109.411 129.374q-3.048 2.997-8.331 2.997-3.557 0-5.588-1.829t-2.032-4.775q0-3.607 2.387-5.893 2.388-2.337 5.995-3.353a29.7 29.7 0 0 1 7.569-1.168l1.829-.153q.965 0 1.117-.965l.153-1.067q.051-.254.051-.812 0-3.048-3.506-3.048-4.013 0-5.943 3.149-.255.356-.661.356-.304 0-.457-.051l-4.927-1.168q-.508-.102-.508-.661 0-.507.254-1.016 3.352-5.486 12.649-5.486 5.486 0 8.026 1.93 2.59 1.93 2.591 5.334 0 .458-.102 1.473l-2.54 17.78q-.05.662-.203.813-.151.102-.711.102h-5.232q-.508 0-.661-.305-.152-.305-.203-1.016l.051-1.321q0-.406-.254-.406t-.813.559m2.184-9.754v-.305q0-.203-.101-.254-.101-.101-.407-.051l-1.828.153q-2.947.203-5.487 1.473t-2.54 3.912q0 1.218.864 1.981.914.711 2.438.711 1.321 0 2.489-.356a7.2 7.2 0 0 0 2.032-1.066q1.88-1.423 2.083-2.896zM123.864 131.863q-.61 0-.915-.356-.254-.356-.152-.914l3.505-24.943q.051-.457.152-.559.153-.152.559-.152h6.045q.915 0 .712 1.067l-.356 2.286v.203q0 .355.203.355.153 0 .457-.304 1.779-1.88 3.963-2.998 2.184-1.117 3.962-1.117 1.066 0 1.575.152.508.153.457.61l-.813 5.689q-.05.56-.203.712-.102.152-.406.101a24 24 0 0 0-3.455-.254q-1.32 0-2.794.711a8 8 0 0 0-2.54 1.778q-1.015 1.068-1.168 2.134l-2.083 14.834q-.102.66-.355.812-.204.153-.966.153zM176.481 130.085q.457.813.457 1.219a.5.5 0 0 1-.254.457q-.254.102-.762.102h-7.061q-.61 0-.965-.153-.304-.152-.508-.609l-5.639-11.735q-.253-.508-.508-.508-.152 0-.559.559l-9.042 11.836q-.253.406-.61.508-.304.102-1.066.102h-5.944q-1.016 0-1.016-.661 0-.456.762-1.524l13.005-16.306q.559-.61.559-1.067 0-.356-.102-.559l-8.484-16.561a1 1 0 0 1-.152-.508q0-.507.762-.508h7.417q.66 0 .914.153.255.151.508.66l4.928 10.363q.152.407.355.407.204 0 .508-.407l8.027-10.566q.304-.406.559-.508.305-.102.965-.102h6.553q.61 0 .61.559 0 .407-.305.914l-12.599 15.647q-.507.66-.508.914 0 .204.153.508zM218.113 94.169q.355 0 .457.203.102.153.051.559l-5.131 36.373q-.051.355-.254.457-.153.102-.559.102h-5.182q-.66 0-1.168-.813l-13.106-22.708q-.153-.254-.305-.254-.305 0-.356.559l-3.149 22.403q-.102.508-.305.66-.153.153-.711.153h-5.588q-.813 0-.712-1.118l5.08-35.814q.102-.508.204-.609.151-.153.66-.153h6.147q.508 0 .762.254.304.204.559.711l11.988 21.184q.255.406.508.406.407 0 .458-.609l2.946-21.285q.051-.407.203-.508.204-.153.661-.153zM236.44 132.371q-4.572 0-7.925-1.931-3.353-1.93-5.131-5.435-1.727-3.556-1.727-8.331 0-6.3 2.489-11.532 2.489-5.283 7.061-8.382t10.516-3.099q4.064 0 7.163 1.575 3.149 1.575 4.876 4.166 1.727 2.54 1.829 5.435 0 .509-.101.762a.33.33 0 0 1-.254.254l-6.96 1.016h-.051q-.203 0-.355-.254-.102-.254-.254-1.016-.356-2.54-1.931-4.115-1.524-1.574-4.318-1.574-3.606 0-5.994 2.641-2.337 2.641-3.455 6.807-1.117 4.115-1.117 8.586 0 4.368 1.625 6.299 1.677 1.88 4.877 1.879 3.099 0 5.233-1.727a10.4 10.4 0 0 0 3.149-4.216l.305-1.423q.152-.253.152-.355 0-.305-.609-.305h-6.249q-.304 0-.406-.102-.102-.151-.051-.558l.457-4.166q.051-.56.508-.559l14.529.051q.61 0 .762.203.204.153.102.661l-2.489 17.576q-.051.661-.813.661h-1.524q-.458 0-.711-.153-.203-.152-.356-.609l-.864-3.709q-.05-.254-.355-.254t-.661.407q-1.675 2.082-4.368 3.454t-6.604 1.372" transform="translate(-80.071 -266.5)scale(2.84536)" fill="#86c0d1" fill-rule="nonzero"/><circle cx="1500" cy="1500" r="1500" transform="translate(651.5)scale(.03667)" fill="#7bbaa8"/><circle cx="1498.268" cy="1500" r="1400" transform="translate(651.5)scale(.03667)" fill="#2e3440"/><path d="M179.079 1192.101h135.534zM132.455 1292.443h349.201zM140.483 1436.94h333.145zM545.877 1292.443h68.234zM748.79 1438.73l-182.844 2.224zM317.09 1545.312h92.317zM425.463 1661.713l276.952-4.014zM280.966 1806.209h64.221zM409.407 1810.223h321.104zM814.801 1810.223l84.29-4.014z" transform="translate(651.5)scale(.03667)" fill="#c16069" fill-rule="nonzero" stroke="#c16069" stroke-width="75.52px"/><path d="m434.706 1193.366 2305.42-1.655c45.608-.033 83.486 36.75 84.791 82.339l4.306 150.46a111.9 111.9 0 0 1-31.561 81.118 111.89 111.89 0 0 1-80.155 33.929l-2018.147 1.538c-63.215.049-115.377-51.701-115.829-114.915l-1.316-183.636a49.43 49.43 0 0 1 14.506-35.326 49.42 49.42 0 0 1 35.355-14.432l12.68.117a.231.231 0 0 1-.002.463z" transform="translate(651.5)scale(.03667)" fill="none" fill-rule="nonzero" stroke="#c16069" stroke-width="75.52px"/><path d="M291.727 1303.708v131.854zM637.844 1674.548l-1.648 136.798z" transform="translate(651.5)scale(.03667)" fill="none" fill-rule="nonzero" stroke="#c16069" stroke-width="52.84px"/><text transform="matrix(.0322 0 0 .02584 657.24 63.255)" font-family="Helvetica" font-size="267.231px" fill="#eceff4">The Mgaming Group</text><text transform="matrix(.0548 0 0 .04752 677.181 53.754)" font-family="&quot;CaskaydiaCoveNFP-Regular&quot;,&quot;CaskaydiaCove Nerd Font Propo&quot;" font-size="192px" fill="#fffcff" stroke="#fffeff" stroke-width="4.16px">comboom.sucht</text></svg>